<svg width="160" height="160" viewBox="0 0 160 160" fill="none" xmlns="http://www.w3.org/2000/svg">
<path opacity="0.24" d="M46.6667 82.9333V77.0667C46.6667 73.6 49.5 70.7333 53 70.7333C59.0333 70.7333 61.5 66.4667 58.4667 61.2333C56.7333 58.2333 57.7667 54.3333 60.8 52.6L66.5667 49.3C69.2 47.7333 72.6 48.6667 74.1667 51.3L74.5333 51.9333C77.5333 57.1667 82.4667 57.1667 85.5 51.9333L85.8667 51.3C87.4333 48.6667 90.8333 47.7333 93.4667 49.3L99.2333 52.6C102.267 54.3333 103.3 58.2333 101.567 61.2333C98.5333 66.4667 101 70.7333 107.033 70.7333C110.5 70.7333 113.367 73.5667 113.367 77.0667V82.9333C113.367 86.4 110.533 89.2667 107.033 89.2667C101 89.2667 98.5333 93.5333 101.567 98.7667C103.3 101.8 102.267 105.667 99.2333 107.4L93.4667 110.7C90.8333 112.267 87.4333 111.333 85.8667 108.7L85.5 108.067C82.5 102.833 77.5667 102.833 74.5333 108.067L74.1667 108.7C72.6 111.333 69.2 112.267 66.5667 110.7L60.8 107.4C57.7667 105.667 56.7333 101.767 58.4667 98.7667C61.5 93.5333 59.0333 89.2667 53 89.2667C49.5 89.2667 46.6667 86.4 46.6667 82.9333Z" fill="#022658"/>
<path d="M80 90.8334C85.9831 90.8334 90.8333 85.9831 90.8333 80C90.8333 74.0169 85.9831 69.1667 80 69.1667C74.0169 69.1667 69.1667 74.0169 69.1667 80C69.1667 85.9831 74.0169 90.8334 80 90.8334Z" fill="#022658"/>
<rect x="0.5" y="0.5" width="159" height="159" rx="79.5" stroke="#939393" stroke-dasharray="5 5"/>
</svg>
