<svg width="160" height="160" viewBox="0 0 160 160" fill="none" xmlns="http://www.w3.org/2000/svg">
<rect width="160" height="160" rx="80" fill="white"/>
<path opacity="0.24" d="M80 113.367C98.4095 113.367 113.333 98.4428 113.333 80.0333C113.333 61.6239 98.4095 46.7 80 46.7C61.5905 46.7 46.6667 61.6239 46.6667 80.0333C46.6667 98.4428 61.5905 113.367 80 113.367Z" fill="#03FC85"/>
<path d="M80 63.1334C73.1 63.1334 67.5 68.7334 67.5 75.6334C67.5 82.4 72.8 87.9 79.8333 88.1C79.9333 88.1 80.0667 88.1 80.1333 88.1C80.2 88.1 80.3 88.1 80.3667 88.1C80.4 88.1 80.4333 88.1 80.4333 88.1C87.1667 87.8667 92.4667 82.4 92.5 75.6334C92.5 68.7334 86.9 63.1334 80 63.1334Z" fill="#03FC85"/>
<path d="M102.6 104.533C96.6667 110 88.7333 113.367 80 113.367C71.2667 113.367 63.3333 110 57.4 104.533C58.2 101.5 60.3667 98.7333 63.5333 96.6C72.6333 90.5333 87.4333 90.5333 96.4667 96.6C99.6667 98.7333 101.8 101.5 102.6 104.533Z" fill="#03FC85"/>
</svg>
