<svg width="70" height="64" viewBox="0 0 70 64" fill="none" xmlns="http://www.w3.org/2000/svg">
<path fill-rule="evenodd" clip-rule="evenodd" d="M69.4073 32.7926C69.3823 32.8621 69.32 33.0366 69.2409 33.256C69.3106 33.2898 69.3862 33.3258 69.4914 33.3764C69.5447 33.5703 69.8397 33.7755 69.6603 34.0378C69.4988 34.2738 69.9254 34.5232 69.5994 34.7147C69.6548 35.2097 69.3063 35.5668 69.0766 35.9126C68.8684 36.2263 68.8176 36.6181 68.5025 36.8906C68.2286 37.1276 68.0745 37.5037 67.8668 37.8196C67.6861 37.8278 67.5183 37.835 67.2856 37.8454C67.3276 37.9794 67.3589 38.08 67.4087 38.2385C67.346 38.3088 67.2433 38.425 67.1318 38.5508C67.2007 38.7623 67.2653 38.9612 67.3414 39.1947C67.2331 39.318 67.1257 39.4406 67.0084 39.5743C67.1007 39.6073 67.1872 39.6381 67.3345 39.6905C67.1661 39.81 67.0276 39.9084 66.8821 40.0117C66.9104 40.0449 66.9543 40.0963 67.0233 40.1767C66.5274 40.3613 66.0857 39.9169 65.5388 40.1317C65.2009 40.3754 64.9501 40.8726 64.4482 41.0563C64.2546 41.1275 64.4202 41.4824 64.0884 41.4406C63.9703 41.4258 64.0576 41.806 63.7807 41.7321C63.6774 42.0765 63.3701 42.215 63.1275 42.432C62.9262 42.6117 62.7424 42.846 62.5803 43.0803C62.4452 43.2753 62.3009 43.4643 62.1578 43.6539C62.0284 43.8255 61.8765 43.9835 61.77 44.1681C61.6793 44.3255 61.687 44.5944 61.5645 44.6656C61.3997 44.7612 61.287 44.8644 61.2519 45.0867C61.0898 44.99 60.9909 44.9312 60.8915 44.8719C60.5819 45.0232 60.2718 45.1672 59.9636 44.7886V44.0022C59.371 43.6684 58.7516 43.377 58.4741 42.6224C58.4958 42.3735 58.375 42.0208 58.6145 41.7296C58.2668 41.0352 58.5686 40.4473 58.9035 39.8683C59.3065 39.1714 59.8353 38.5764 60.4553 38.0283C60.0907 37.4814 59.7097 36.9719 59.3991 36.4227C59.1853 36.045 58.9491 35.633 58.9373 35.2009C58.9252 34.7531 58.7843 34.2859 59.0513 33.8318C59.1705 33.6285 59.056 33.3341 59.1897 33.0662C59.2699 32.9053 59.3197 32.7264 59.4433 32.572C59.51 32.4888 59.507 32.3495 59.5619 32.1287C59.6853 32.0141 59.9946 31.8598 60.0591 31.6356C60.1525 31.3098 60.5695 31.434 60.5635 31.053C60.6712 31.1346 60.719 31.1708 60.7934 31.2271C60.9659 31.176 61.161 31.1184 61.3645 31.0585C61.4387 31.1991 61.501 31.317 61.5766 31.4604C61.4274 31.7304 61.2645 32.0254 61.0772 32.3644C61.4475 32.3278 61.7334 32.2993 61.9776 32.2751C62.0773 32.3748 62.1304 32.4276 62.1891 32.4863C62.0892 32.6825 61.9883 32.8808 61.8554 33.1426C62.0903 33.1668 62.2727 33.1854 62.4987 33.2085C62.443 33.4733 62.3875 33.739 62.3328 34.0002C62.2372 34.0854 62.1339 34.1777 62.0276 34.2727C62.0949 34.34 62.1227 34.376 62.1287 34.3724C62.2265 34.3183 62.3218 34.2592 62.438 34.1889C62.4773 34.2938 62.5017 34.3584 62.5333 34.4419C62.3213 34.5493 62.1196 34.6515 61.8897 34.7677C61.9963 34.8034 62.0809 34.8317 62.2375 34.8839C62.0589 35.0627 61.9004 35.2215 61.6939 35.4289C61.9573 35.6368 62.1908 35.8214 62.441 36.0192C62.8097 36.0893 63.1058 35.9338 63.3956 35.6833C64.0661 35.1045 64.8032 34.5993 65.4638 34.0175C66.1401 33.4217 66.8595 32.838 67.3411 32.0397C67.4537 31.8529 67.6515 31.7177 67.8215 31.548H68.6099C68.653 31.6026 68.7272 31.6969 68.8041 31.7936C68.7179 32.0394 68.6294 32.2927 68.514 32.6218C68.753 32.5561 68.947 32.5028 69.1994 32.4333C69.2392 32.502 69.301 32.6089 69.4073 32.7926Z" fill="#022658"/>
<path fill-rule="evenodd" clip-rule="evenodd" d="M21.8656 48.5701C21.6225 48.6454 21.4228 48.7075 21.1646 48.7874C21.2275 48.6525 21.269 48.5635 21.3214 48.4506C21.1495 48.1916 20.955 47.9597 20.5993 48.0111C20.5718 47.9062 20.5542 47.8386 20.5295 47.7446H19.9106C19.8488 47.6828 19.7952 47.6534 19.7812 47.6111C19.6864 47.3255 19.6664 46.9859 19.4944 46.7618C19.273 46.4736 19.3832 46.191 19.373 45.9119C19.3645 45.6852 19.456 45.4531 19.5117 45.2257C19.7117 44.4126 20.021 43.6393 20.4149 42.9039C20.6575 42.4518 20.9292 42.0115 21.2269 41.5936C21.5178 41.1854 21.8587 40.8127 22.1876 40.4119C22.0983 40.3548 22.0005 40.2883 21.8988 40.2281C20.9163 39.6469 20.0556 38.9151 19.2576 38.1036C18.881 37.7207 18.8788 37.2067 18.769 36.7337C18.7247 36.5444 18.7618 36.336 18.7618 36.1363C18.9632 35.7522 19.3689 35.7198 19.7625 35.5632C19.8952 35.7967 20.0315 36.0368 20.1853 36.3068C20.2122 36.2871 20.2589 36.2527 20.3427 36.1909C20.3941 36.242 20.4844 36.2912 20.5097 36.3634C20.6663 36.8087 21.03 37.0353 21.4165 37.2282C22.2029 37.6213 22.9965 37.999 23.841 38.4091C24.0385 38.2003 24.236 37.88 24.5227 37.7199C24.787 37.5721 24.8007 37.1493 25.2128 37.19C25.154 37.1177 25.1131 37.0675 25.0521 36.9928C25.1784 36.9043 25.3065 36.8148 25.4847 36.69C25.541 36.5659 25.627 36.3766 25.7111 36.1912C25.8385 36.1838 25.9569 36.1769 26.1275 36.167C26.055 36.0736 26.0171 36.025 25.9583 35.9492C26.2764 35.9028 26.2976 35.5734 26.4978 35.3965C26.7093 35.2094 26.859 34.9526 27.0596 34.6955C27.1041 34.7282 27.1505 34.7622 27.2389 34.8273C27.278 34.7356 27.3145 34.649 27.3604 34.5405C27.4145 34.5842 27.4645 34.6243 27.5546 34.6974C27.6526 34.1713 27.951 33.7494 28.268 33.3701C28.5946 32.9789 28.8882 32.5298 29.4228 32.268C29.4898 32.3232 29.5796 32.3971 29.6813 32.4806C29.47 32.8863 29.2654 33.2885 28.8325 33.5003V34.0994C28.9349 34.0744 29.039 34.079 29.0607 34.0389C29.1475 33.8771 29.2088 33.7016 29.2431 33.6189C29.5991 33.3256 29.89 33.086 30.257 32.7839C30.2779 33.0638 30.2911 33.2464 30.3043 33.4217C30.1925 33.4676 30.1073 33.5025 30.0178 33.5393C30.0409 33.5714 30.0697 33.6335 30.0851 33.6302C30.2669 33.5928 30.4469 33.5456 30.668 33.4909C30.7306 33.6014 30.807 33.7357 30.8839 33.8708C30.8427 33.9167 30.7935 33.9711 30.7405 34.0299C30.7718 34.2469 31.0328 34.4384 30.8309 34.687C30.7721 34.6339 30.7199 34.5867 30.6666 34.5381C30.6419 34.5845 30.5938 34.6337 30.6037 34.6647C30.6312 34.7526 30.6825 34.8331 30.7402 34.9468C30.699 35.3273 30.3949 35.58 30.1128 35.8368C29.8458 36.0799 29.5522 36.2934 29.2088 36.5689C29.35 36.6499 29.4728 36.7208 29.611 36.8005C29.5247 36.9661 29.4725 37.0661 29.4176 37.171C29.4494 37.2065 29.4972 37.2587 29.5714 37.3405C29.4085 37.3666 29.2712 37.3889 29.0742 37.421C29.1278 37.5575 29.1736 37.6737 29.2267 37.8086H28.7278C28.6352 37.9984 28.5545 38.1641 28.4776 38.3217C28.549 38.3987 28.599 38.4525 28.6709 38.53C28.5179 38.5582 28.3809 38.5838 28.1814 38.6212C28.2298 38.7486 28.274 38.8634 28.3259 39C28.1979 39.0189 28.06 39.0392 27.8804 39.0656C27.9331 39.2079 27.976 39.3233 28.0468 39.5145C27.8518 39.4387 27.7098 39.3834 27.5384 39.317C27.4576 39.4708 27.3752 39.6279 27.295 39.7806C27.3236 39.835 27.3348 39.8946 27.3686 39.9131C27.4282 39.9455 27.5087 39.9394 27.5678 39.9724C27.7971 40.1004 27.8507 40.3971 28.0762 40.5243C28.3193 40.6616 28.4251 40.8973 28.58 41.1072C28.7196 41.2961 28.8231 41.4555 28.8075 41.6947C28.802 41.7766 28.875 41.8634 28.9204 41.9659C28.8808 42.0332 28.8242 42.129 28.747 42.2603C28.5446 42.2837 28.3973 42.5548 28.0279 42.4117C27.3826 42.1614 26.711 41.9373 26.0102 41.853C25.9712 41.8483 25.9391 41.7862 25.8754 41.7225C25.6704 41.9535 25.4669 42.1829 25.2114 42.471C25.2081 42.4982 25.1944 42.6161 25.1793 42.7433C25.0359 42.7658 24.8985 42.7875 24.6851 42.821C24.826 43.0188 24.9312 43.1666 25.0881 43.3869C24.9109 43.3349 24.7928 43.3006 24.6428 43.2567C24.6118 43.2935 24.5488 43.3679 24.4804 43.4487C24.5672 43.6885 24.4975 43.8352 24.2165 43.9948C24.1324 44.2969 24.0516 44.5873 23.9843 44.8296C23.8574 44.8763 23.7866 44.9024 23.6951 44.9362L23.8591 45.1001C23.6352 45.2716 23.3784 45.4103 23.2048 45.6185C23.0479 45.8061 22.9825 46.0698 22.8606 46.3357C22.8724 46.3539 22.9215 46.4275 22.9996 46.5442C22.8345 46.7143 22.6724 46.8813 22.5164 47.0417C22.5771 47.1175 22.6218 47.1733 22.6993 47.27C22.5892 47.3958 22.4809 47.5194 22.3603 47.657V48.0938C22.1834 48.2641 22.0041 48.4369 21.8656 48.5701Z" fill="#022658"/>
<path fill-rule="evenodd" clip-rule="evenodd" d="M40.2888 51.5556C40.6349 51.9742 40.6352 51.975 41.0552 51.7429C41.067 51.8769 41.0629 51.9937 41.0917 52.1014C41.1123 52.1777 41.1771 52.2423 41.2189 52.3071C41.1656 52.3607 41.1302 52.3959 41.0851 52.4409C41.1898 52.4898 41.2898 52.5368 41.4535 52.6134C41.2832 52.856 41.1225 53.0845 40.9621 53.3133C41.1689 53.6853 40.7313 53.7512 40.6684 53.9504C40.5714 54.258 40.1973 54.3242 40.1866 54.653C40.1742 55.0365 39.7809 55.0838 39.61 55.3071C39.4617 55.5013 39.198 55.6282 39.1639 55.876C39.2229 55.9771 39.2696 56.057 39.3463 56.1886C39.1246 56.3138 38.9315 56.4235 38.7378 56.5331L38.2706 56.7539C38.1286 56.9215 37.9865 57.089 37.7967 57.3126V57.4596C37.3185 57.8109 36.8718 58.1398 36.3532 58.521C36.5015 58.5966 36.5914 58.6424 36.7402 58.7185C36.5342 59.0067 36.3257 59.2984 36.1016 59.6119C36.6771 59.808 37.2185 59.9929 37.7769 60.1835C37.7217 60.2945 37.675 60.3881 37.6119 60.5151C37.8607 60.6038 38.0934 60.6867 38.359 60.7815V61.1073C38.526 61.2609 38.6725 61.3952 38.8241 61.5347C38.8334 61.7108 38.8419 61.8789 38.8505 62.0396L39.1221 62.311L38.4329 62.8846C38.2706 63.0653 38.1014 63.0318 37.9195 62.9112C37.8643 62.8747 37.7868 62.8538 37.7198 62.8552C36.9463 62.8722 36.2472 62.5778 35.5434 62.3204C35.0242 62.1308 34.5245 61.8883 33.9861 61.6564C33.8392 61.8028 33.6104 61.9138 33.581 62.216C33.27 62.2896 32.9511 62.3654 32.6528 62.436C32.4989 62.2803 32.3761 62.1561 32.2531 62.0314C32.2998 61.9797 32.3481 61.9264 32.4195 61.8476C32.3454 61.6932 32.2654 61.527 32.2176 61.4281C31.9861 61.4639 31.7811 61.4957 31.5812 61.5265C31.4705 61.3078 31.371 61.1103 31.2691 60.9084C31.2194 60.9581 31.1842 60.9933 31.1713 61.0062C31.0057 60.8378 30.8387 60.6683 30.6079 60.4343C30.6796 59.9146 30.347 59.3177 30.4362 58.6724C30.4552 58.5372 30.3516 58.3417 30.2426 58.2395C29.8006 57.8247 29.7816 57.2253 29.574 56.7152C29.4946 56.5204 29.41 56.2732 29.4031 56.0378C29.3916 55.6639 29.3479 55.2799 29.4119 54.9167C29.513 54.3424 29.6218 53.7298 30.2906 53.5037C30.5118 53.429 30.7552 53.4207 31.0466 53.3724V54.5407C31.3002 54.3775 31.4699 54.2682 31.7232 54.105C31.7583 54.2083 31.8007 54.3314 31.8424 54.4544C31.88 54.4259 31.9177 54.3973 31.9553 54.3687V55.0579C32.0841 54.9926 32.1773 54.9453 32.2652 54.9005C32.583 55.1785 32.5747 55.5345 32.5308 55.9007C32.6371 55.9383 32.7236 55.9688 32.8624 56.018C32.8033 56.1784 32.7442 56.3377 32.6728 56.5303C32.7593 56.5146 32.8027 56.5193 32.8269 56.4998C32.8852 56.4537 32.9253 56.3713 32.989 56.3471C33.6288 56.104 33.9507 55.4238 34.5929 55.1873C34.722 54.7223 35.2124 54.6231 35.4989 54.3097C35.7969 53.9839 36.2175 53.7718 36.5771 53.5001C36.9251 53.237 37.1212 52.7936 37.5753 52.6543C37.8736 52.1113 38.303 51.6998 38.8373 51.3927C38.8186 51.0248 39.3246 50.9792 39.3128 50.5914H39.9883C40.0366 50.6394 40.1072 50.71 40.1778 50.7806C39.8545 50.9416 39.7364 51.2539 39.5295 51.5841C39.977 51.6767 40.2347 51.132 40.6563 51.3833C40.5344 51.4405 40.4346 51.4872 40.2888 51.5556Z" fill="#022658"/>
<path fill-rule="evenodd" clip-rule="evenodd" d="M38.5511 43.6372C38.5162 43.287 39.009 43.2486 38.7755 42.9222C38.7159 42.9755 38.6629 43.0225 38.6099 43.0695C38.5923 43.0516 38.5618 43.0359 38.5588 43.0162C38.5033 42.6492 38.5256 42.3011 38.786 42.002C39.0725 41.6734 39.3565 41.3422 39.6312 41.0037C39.718 40.8969 39.7716 40.7631 39.857 40.6126C39.7213 40.259 39.5354 39.8926 39.3738 39.5283C39.2005 39.1372 39.2043 38.713 39.0159 38.326C38.9156 38.1205 39.1772 37.7598 39.1159 37.5082C39.0469 37.2267 38.8808 36.9871 39.1236 36.7218C39.1285 35.9795 39.6331 35.5169 40.0746 35.0016H41.3225C41.3956 35.0708 41.4678 35.1395 41.5849 35.2502C41.3951 35.4922 41.205 35.7342 40.9948 36.0021C41.0182 36.0521 41.0745 36.1715 41.1497 36.3317C41.2201 36.3317 41.3547 36.3721 41.4027 36.3246C41.6112 36.1199 41.8521 36.2026 42.0716 36.1784C42.1527 36.3539 42.2202 36.5006 42.2955 36.6635C42.1829 36.8042 42.0667 36.9495 41.8903 37.1695C42.1571 37.2036 42.3359 37.2264 42.571 37.2563V37.9744C43.077 37.9909 43.1325 37.378 43.5586 37.3805C43.7519 37.086 44.0341 36.8811 44.2882 36.6462C44.5813 36.3756 44.8601 36.0889 45.1364 35.8007C45.3908 35.5351 45.649 35.2705 45.8775 34.9838C46.1127 34.6882 46.3149 34.3662 46.4508 34.1712C46.7604 34.0602 46.9349 33.9976 47.1513 33.9201C47.2222 34.0209 47.3384 34.1234 47.3681 34.2467C47.3909 34.3415 47.3153 34.4676 47.2645 34.5701C47.2065 34.6865 47.1271 34.792 47.128 34.9969C47.3464 34.9049 47.5647 34.8126 47.8051 34.7113C47.9334 34.9612 48.0707 35.2288 48.2789 35.6345C48.2789 35.626 48.2669 35.7735 48.2831 35.9177C48.2957 36.0298 48.3432 36.138 48.3853 36.2817C48.3556 36.3333 48.3012 36.4289 48.2509 36.5174C48.3265 36.599 48.3767 36.6531 48.4215 36.7012C47.9875 37.3961 47.5969 38.1156 47.1208 38.7883C46.7211 39.3531 46.7772 39.3926 46.4844 39.5525C46.5311 39.6044 46.5783 39.6566 46.6162 39.6987C46.0234 40.3629 45.4356 41.0219 44.8389 41.6907V41.9394C45.3076 42.2379 45.7611 42.5267 46.2352 42.8285C46.1665 42.9631 46.1245 43.0456 46.0597 43.1733C46.239 43.3274 46.3596 43.6238 46.7069 43.5145C46.7829 43.6655 46.845 43.7889 46.906 43.9103C46.8623 43.9713 46.8079 44.0468 46.7335 44.1504C46.9214 44.3385 47.0901 44.5075 47.2725 44.6902C47.203 44.869 47.1439 45.0214 47.0782 45.1904C47.1263 45.2728 47.184 45.3722 47.2373 45.4637C47.2109 45.5206 47.2027 45.5794 47.17 45.6011C47.0964 45.6491 46.9881 45.6585 46.9343 45.7194C46.6121 46.0831 46.5544 46.1035 46.1492 45.965C45.6246 45.7857 45.0603 45.6802 44.581 45.4184C43.9387 45.0679 43.3616 44.5981 42.6982 44.1391C42.4197 44.3451 42.1071 44.6278 41.806 44.9495C41.5148 45.2607 41.1311 45.5074 40.5976 45.6662C40.6916 45.511 40.73 45.4475 40.8132 45.3091C40.4789 45.3714 40.1985 45.4236 39.9183 45.4758L39.8702 45.3794C40.0389 45.2478 40.2073 45.1165 40.3759 44.9852L40.1152 44.7245H39.6038C39.5356 44.5534 39.4598 44.3616 39.3703 44.1364H38.7495C38.664 43.9213 38.5874 43.7284 38.5511 43.6372Z" fill="#022658"/>
<path fill-rule="evenodd" clip-rule="evenodd" d="M41.8005 28.9375C41.5434 28.999 41.3168 29.0534 40.997 29.13C40.6688 28.8875 40.2762 28.5853 39.871 28.3018C39.3878 27.9637 38.9681 27.533 38.4165 27.2948C38.2888 27.2396 38.1547 27.1997 37.9773 27.136C37.7622 26.8138 37.7372 26.2155 37.1062 26.2814C36.8208 26.0205 36.7859 25.5672 36.3687 25.5233C36.2321 25.2906 36.1459 25.0244 35.9665 24.8582C35.1476 24.0987 34.5551 23.1864 34.0455 22.0857C34.0013 21.7459 34.001 21.293 33.9277 20.8386C33.8123 20.123 34.1936 19.5085 34.8133 19.1119C34.9845 19.0025 35.0726 18.7622 35.3569 18.7877C35.5547 18.8056 35.7635 18.7004 36.0261 18.6358C36.1038 18.705 36.2069 18.7965 36.3368 18.9119C36.1255 19.2665 35.7261 19.4904 35.6959 19.9667C36.1659 20.1236 36.3766 19.6014 36.8496 19.5412C36.9073 19.5929 37.0098 19.6841 37.1059 19.7703C36.9384 20.0217 36.8255 20.1909 36.6175 20.5026C36.9408 20.4005 37.1708 20.3988 37.2556 20.287C37.4702 20.0041 37.8171 19.8906 38.0185 19.5758C38.2061 19.2827 38.5138 19.0643 38.8283 18.86C39.273 18.5713 39.6334 18.1562 40.0504 17.8205C40.6633 17.3272 41.2376 16.7866 41.9203 16.3764C42.1903 16.2146 42.39 15.9328 42.6142 15.6979C42.818 15.4842 43.1418 15.3908 43.2059 15.0722H44.2134V15.7221C44.1854 15.7501 44.0887 15.8468 43.9723 15.9636C44.1058 15.9397 44.239 15.9207 44.3697 15.891C44.5027 15.8608 44.6334 15.8202 44.8351 15.765C44.8043 16.2487 44.8277 16.677 45.1771 16.989C45.1035 17.0882 45.0614 17.1448 44.9768 17.2593C45.0834 17.3181 45.207 17.3857 45.4369 17.5118C45.2001 17.5766 45.1197 17.5986 45.0098 17.6288C45.0515 17.7244 45.1076 17.8136 45.1279 17.9106C45.1485 18.0062 45.1326 18.1092 45.1326 18.2073C44.8549 18.5886 44.5769 18.9698 44.2717 19.3885C44.2156 19.3948 44.0975 19.4077 43.9239 19.4267C43.9766 19.4992 44.0091 19.5445 44.0516 19.6033C44.0069 19.7104 43.9571 19.8294 43.9014 19.9618C43.2421 19.9299 43.2374 20.6092 42.8298 20.8738C42.916 20.9872 42.9589 21.0435 42.9784 21.0693C42.7073 21.3407 42.4337 21.6143 42.1573 21.8904C42.1796 21.9107 42.1441 21.8786 42.1595 21.8923C42.0365 22.0151 41.9096 22.142 41.7826 22.2692C41.7414 22.2371 41.7005 22.2052 41.6593 22.1731V22.5675C41.5722 22.4958 41.5217 22.4541 41.4082 22.361C41.4332 22.5291 41.45 22.6409 41.4733 22.798C41.2863 23.0403 41.0613 23.3317 40.8176 23.6476C40.708 23.5674 40.6333 23.5122 40.5668 23.4633C40.2971 23.7787 40.0205 24.102 39.7414 24.4283C39.8488 24.4819 39.9479 24.5311 40.0924 24.6028C39.9578 24.7734 39.8422 24.92 39.7337 25.0577C39.7513 25.1184 39.7513 25.1744 39.779 25.2057C40.2353 25.7172 40.7764 26.1746 41.1322 26.7476C41.5329 27.3929 42.0337 28.059 41.8005 28.9375Z" fill="#022658"/>
<path fill-rule="evenodd" clip-rule="evenodd" d="M52.1946 18.1067C52.2408 18.0606 52.2762 18.0251 52.3128 17.9886C52.2858 17.954 52.263 17.9142 52.2309 17.8848C52.0367 17.7076 51.7914 17.5557 51.6343 17.3821C51.4802 17.2123 51.3077 17.0829 51.1516 16.9274C50.9442 16.7206 50.7129 16.4245 50.7019 16.1583C50.6824 15.682 50.6536 15.2043 50.7668 14.7052C50.9621 13.8434 51.4134 13.191 52.0111 12.5958C52.7699 11.8401 53.5261 11.0819 54.3222 10.2858C54.02 10.0257 54.0046 9.53454 53.5261 9.43895C53.325 9.04805 53.1248 8.65716 52.9237 8.26627C52.7383 7.90559 52.7715 7.51635 52.7734 7.13095C52.7751 6.85653 52.774 6.5821 52.774 6.30768C53.0264 5.98546 53.2789 5.66324 53.5272 5.34679H54.7751C54.5752 5.68824 54.404 5.98024 54.2362 6.26703C54.6977 6.60216 54.8672 5.87613 55.2726 6.09754C55.5256 6.44393 55.0548 6.6071 54.9056 6.94223C55.1935 6.87328 55.3608 6.8329 55.5654 6.78373C55.6869 7.13974 55.6262 7.45124 55.4347 7.78582C55.5369 7.82565 55.6174 7.85697 55.7388 7.90394C55.8253 7.99679 55.6457 8.01025 55.6152 8.14705C55.7355 8.3311 55.8819 8.55525 56.0629 8.83242C57.2991 7.5353 58.8753 6.66589 59.8392 5.18445H60.5907C60.5328 5.43168 60.4822 5.64759 60.413 5.94289C60.6218 5.86927 60.7825 5.81268 61.0028 5.73494V6.3162C61.1231 6.34779 61.1907 6.36537 61.2583 6.38322C61.2772 6.42525 61.3069 6.46618 61.3121 6.50986C61.3212 6.58348 61.3022 6.66149 61.3165 6.73374C61.4689 7.51168 61.0816 8.12892 60.6751 8.71183C60.2356 9.34253 59.7252 9.92406 59.2093 10.5726C59.5774 11.0146 60.1661 11.2294 60.6841 11.642C60.6938 11.7101 60.7094 11.825 60.7278 11.9571C60.8652 12.1288 61.0871 12.295 61.15 12.5081C61.2879 12.9754 61.6291 13.4105 61.3973 14.0137C61.3407 14.0396 61.216 14.1008 61.0882 14.1552C60.9608 14.2093 60.8308 14.256 60.6861 14.3123C60.4877 14.1107 60.0397 14.1747 60.0999 13.7822C59.6425 13.65 59.2401 13.5336 58.85 13.4207C58.7607 13.2655 58.6797 13.1248 58.5882 12.9658H57.7608C57.7399 12.8765 57.7237 12.8089 57.704 12.7254C57.3979 12.49 57.1408 12.7672 56.962 12.815C56.7175 13.0985 56.5305 13.3155 56.3236 13.5547C56.2643 13.5097 56.2168 13.4734 56.1343 13.4111C56.0459 13.536 55.9506 13.6706 55.8344 13.8346C55.819 13.8146 55.8566 13.8632 55.9124 13.9352C55.5652 14.0223 55.535 14.3711 55.3822 14.6582C55.2622 14.5843 55.1833 14.5357 55.0625 14.4612C55.0419 14.5903 55.0218 14.7167 54.9976 14.8661C54.946 14.8801 54.8787 14.8983 54.7584 14.931C54.7262 15.2345 54.6831 15.6042 54.2332 15.5034C54.0821 15.6993 53.8288 15.8814 53.8461 16.033C53.8978 16.4888 53.5162 16.7066 53.4121 17.0629C53.3629 17.5131 53.3698 17.5128 53.5096 17.8136C53.1836 18.0735 52.8155 18.2485 52.3927 18.3564C52.3375 18.2866 52.2757 18.2092 52.1946 18.1067Z" fill="#022658"/>
<path fill-rule="evenodd" clip-rule="evenodd" d="M8.38332 9.64256C8.19681 9.66564 8.08445 9.67965 7.94271 9.69723C8.02897 9.79282 8.07814 9.84694 8.1567 9.93402C7.97073 10.2799 7.6183 10.4873 7.37931 10.7897L7.49633 10.9067C7.30597 11.0562 7.11533 11.2056 6.95325 11.3328C6.8637 11.5687 7.05489 11.8349 6.73982 11.9811C7.01891 12.1681 7.2741 12.3351 7.5249 12.5082C8.31135 13.0515 9.15247 13.5177 9.80076 14.2495C10.1721 14.6684 10.5218 15.0733 10.5284 15.6749C10.5295 15.7763 10.6325 15.8763 10.7147 16.0249C10.4886 16.168 10.2768 16.3018 10.0115 16.4696C8.51628 15.5936 6.97056 14.8129 5.55285 13.6688C5.45121 13.7267 5.22926 13.7756 5.18833 13.8896C5.02598 14.3412 4.70789 14.6582 4.38402 14.9816C4.34446 15.0211 4.3593 15.1148 4.34858 15.184C4.20986 15.1994 4.09202 15.212 3.91209 15.2318C3.9467 15.3502 3.97609 15.4507 4.02746 15.6268C3.73903 15.8683 3.52367 16.2276 3.41022 16.6737C3.34429 16.9327 3.09597 17.1451 2.87346 17.458V19.0858C2.73172 19.0949 2.6136 19.1023 2.47982 19.1108C2.45098 19.1918 2.42021 19.2786 2.3834 19.3827H1.86698C1.78621 19.1487 1.70353 18.9086 1.60794 18.632C1.46427 18.6952 1.32088 18.7581 1.15002 18.8331C1.11486 18.7243 1.08711 18.6391 1.05937 18.554C1.01706 18.5364 0.970366 18.4974 0.932183 18.5045C0.615184 18.5647 0.398173 18.2966 0.359167 18.126C0.200117 17.4316 -0.249286 16.7448 0.182262 15.9993C0.190228 15.2609 0.648697 14.6975 0.90856 14.0553C0.993441 13.8457 1.35824 13.8825 1.25935 13.5205C1.21869 13.3716 1.48899 13.1356 1.62195 12.9419C1.74254 12.7664 1.85599 12.5843 1.99471 12.4241C2.1576 12.236 2.35594 12.0783 2.51746 11.8893C2.65178 11.7316 2.75534 11.5479 2.88692 11.3545C1.97658 10.6708 1.41977 9.69942 0.78165 8.79375C0.577001 7.91747 0.223467 7.06646 0.361364 6.04047C0.572056 5.79846 0.841534 5.4886 1.13134 5.15594C1.45218 5.22187 1.81286 5.02299 2.10596 5.3573C1.91395 5.61606 1.72331 5.8729 1.53075 6.13249C1.58376 6.18853 1.63293 6.24127 1.68156 6.29291C2.08811 6.37697 2.23699 5.78527 2.66167 5.92235C2.72485 6.04486 2.78776 6.16765 2.85369 6.29511C2.72293 6.37889 2.57322 6.47504 2.41609 6.57558C2.51196 6.67172 2.58256 6.74232 2.65316 6.81291C2.86522 6.59343 3.07124 6.59068 3.32039 6.89093C3.29787 7.05822 3.42753 7.29995 3.17728 7.49471C3.28111 7.54471 3.38275 7.5936 3.52806 7.6631C3.40857 7.8238 3.30254 7.96609 3.19403 8.11195C3.29512 8.14794 3.38193 8.17843 3.5635 8.24298C3.39649 8.28803 3.31737 8.30919 3.17893 8.34654C3.19348 8.46824 3.16437 8.6347 3.23359 8.72782C3.52037 9.1135 3.83682 9.47692 4.17607 9.88924C4.36287 9.72167 4.50626 9.59696 4.64498 9.46758C5.46467 8.70338 6.15059 7.78699 7.16724 7.24584C7.16175 6.96427 7.4565 6.98405 7.58341 6.83324C7.72708 6.66265 7.88667 6.50553 7.98968 6.39538H8.4932C8.26493 6.73133 7.87596 6.92114 8.00287 7.40516C8.32811 7.21122 8.64648 7.02141 9.03436 6.79039C8.99974 7.01207 8.97282 7.18293 8.94261 7.37714C9.07831 7.44554 9.27993 7.548 9.4964 7.65733C9.44063 7.77298 9.39393 7.8694 9.33954 7.9823C9.41783 7.99878 9.48596 8.01279 9.5571 8.02762C9.56452 8.05674 9.59309 8.10646 9.57935 8.12486C9.39695 8.37099 9.15275 8.58855 9.03655 8.86133C8.89096 9.2036 8.56984 9.3577 8.38332 9.64256Z" fill="#022658"/>
<path fill-rule="evenodd" clip-rule="evenodd" d="M22.0579 17.2893C22.6548 16.557 23.1589 15.9483 23.6525 15.331C24.1201 14.7465 24.5198 14.1152 24.8832 13.4683C24.8368 13.4109 24.7917 13.3554 24.7145 13.2603C24.8414 13.1164 24.967 12.9736 25.1002 12.8222H25.5938C25.7784 13.0068 25.927 13.2702 26.1383 13.3375C26.3962 13.4194 26.4328 13.6257 26.5369 13.7798C26.8978 14.3135 27.1489 14.8552 26.8714 15.5508C26.7009 15.9785 26.5281 16.4064 26.3506 16.8322C26.2973 16.9605 26.2583 17.0948 26.1905 17.2901L25.8122 17.6687V18.1401C25.5161 18.6765 25.2697 19.1237 24.9999 19.6127C25.3727 19.866 25.7161 20.1102 26.0699 20.3382C26.7709 20.7901 27.3508 21.3513 27.6972 22.1223C27.7716 22.2882 27.8057 22.4726 27.8831 22.7316C27.8565 22.7907 27.7914 22.936 27.7194 23.0953C27.565 23.1673 27.3983 23.245 27.2681 23.3054C26.9159 23.1838 26.6044 23.0928 26.3067 22.9689C26.0086 22.8453 25.7243 22.6888 25.434 22.5467C25.3845 22.113 24.8901 22.2882 24.6865 21.9932C24.5195 21.7509 24.1481 21.6501 23.8223 21.4603C22.846 22.4564 21.9862 23.5444 21.1973 24.6905C21.1366 24.7784 21.1561 24.9215 21.1385 25.0388C20.7946 25.3036 20.4545 25.2632 20.1134 25.0226V24.7844C19.67 24.5188 19.2544 24.2699 18.7998 23.9974C18.5822 23.7425 18.6929 23.342 18.5512 23.0321C18.3932 22.6871 18.5267 22.3531 18.4668 22.0993C18.9624 20.9947 19.5489 20.0272 20.3886 19.1924V18.6826C19.9032 18.3444 19.6016 17.8173 19.2961 17.3003C19.1937 17.127 19.1777 16.9006 19.1308 16.6968C19.0354 16.282 18.8929 15.8807 18.9055 15.4401C18.93 14.5973 19.4085 13.996 20.2131 13.6935C20.7204 13.5029 21.2132 13.5988 21.7588 13.5452C21.4651 14.1531 20.7616 14.1012 20.3504 14.6108C21.0597 14.5794 21.4918 13.9114 22.2151 14.0388C22.187 14.2091 22.159 14.3797 22.1294 14.5594C22.262 14.6061 22.4568 14.675 22.6441 14.7415V15.6928C22.4513 16.0293 22.2395 16.365 22.0667 16.7199C22.011 16.8339 22.0579 16.9981 22.0579 17.2893Z" fill="#022658"/>
<path fill-rule="evenodd" clip-rule="evenodd" d="M34.7178 7.964C34.4374 8.31561 34.1813 8.63701 33.8981 8.99191V9.95308C33.6347 10.0588 33.3784 10.1621 33.0889 10.2783C32.7466 9.94594 32.6079 9.50505 32.4983 9.08833C32.3516 9.143 32.2219 9.19107 32.0294 9.26249C31.8783 9.04521 31.6945 8.85319 31.5953 8.62465C31.2987 7.93983 31.3223 7.20858 31.3547 6.52047C31.4791 6.23698 31.5901 5.98371 31.7286 5.66754C31.5214 5.6365 31.338 5.66534 31.2619 5.58842C30.7778 5.09919 30.3001 4.60144 29.8565 4.07595C29.6175 3.79246 29.3654 3.47189 29.27 3.1266C29.131 2.62115 29.1277 2.07835 29.0621 1.51385C29.2901 1.19328 29.4755 0.817771 29.765 0.559007C30.0312 0.32112 30.4098 0.209044 30.8201 0C30.9157 0.103561 31.0089 0.203825 31.1031 0.305737C31.0481 0.358479 30.3166 1.06308 30.3166 1.06308C30.3694 1.11609 30.4224 1.16911 30.5004 1.24685C30.8353 1.00264 31.1687 0.68317 31.7132 0.893862C31.578 1.07901 31.4728 1.22295 31.288 1.47594C31.5379 1.37843 31.6775 1.32431 31.8709 1.24904C31.9621 1.38639 32.0599 1.53391 32.1785 1.71301C31.972 1.91985 31.8096 2.0822 31.6137 2.27833C31.7401 2.30415 31.8082 2.31844 31.9214 2.34179C31.7516 2.62802 31.8475 3.02386 31.4099 3.17C31.8442 3.70428 32.3277 3.99876 32.8183 4.32455C34.4698 2.95518 36.0853 1.61549 37.7224 0.25794H38.4452C38.3185 0.51176 38.218 0.714211 38.1161 0.919134C38.3331 1.08478 38.5048 0.898807 38.6971 0.815299C39.2525 1.33365 39.3833 1.98084 39.269 2.70274C39.0382 2.99886 38.8012 3.30295 38.5592 3.61336C38.5748 3.62764 38.6108 3.66115 38.7097 3.75263C38.5765 3.76966 38.4482 3.78614 38.3196 3.80262C38.3699 3.85646 38.4202 3.91058 38.4704 3.96469H38.1916C37.6782 4.9308 36.8105 5.58815 36.1751 6.46828C37.0459 6.95339 38.0202 7.31434 38.9416 7.86346C38.9696 8.00191 39.0012 8.15903 39.0382 8.34473C39.1514 8.22496 39.2363 8.13514 39.3182 8.04861C39.689 8.0986 39.6813 8.52493 39.9925 8.68096C40.265 8.81776 40.4241 9.1809 40.6362 9.44736V10.3368C40.5642 10.4088 40.4936 10.4794 40.3947 10.5783C39.6233 10.4959 38.9855 10.0564 38.2831 9.70091C38.2688 9.71382 38.2166 9.76106 38.1938 9.78167C37.7024 9.66025 37.4093 9.13283 36.8423 9.21167C36.5781 8.87187 36.1435 8.8455 35.8045 8.64525C35.462 8.44307 35.1301 8.22359 34.7178 7.964Z" fill="#022658"/>
<path fill-rule="evenodd" clip-rule="evenodd" d="M56.5342 19.9329C56.6888 20.0202 56.8105 20.0889 56.9891 20.1897C56.9484 20.4337 56.9072 20.6795 56.8569 20.9822C56.9825 21.2003 57.0877 21.5324 57.4687 21.6665C57.6393 21.4286 57.7439 21.1564 58.0722 21.0234C58.3027 20.9298 58.4381 20.6015 58.6147 20.3771C58.8089 20.1301 59.0787 19.9615 59.2317 19.6607C59.3603 19.4077 59.6366 19.2346 59.811 18.9989C59.991 18.7553 60.1272 18.4792 60.2824 18.2177H61.1268C61.1713 18.4545 61.2444 18.6885 60.9656 18.933C61.2062 18.944 61.3925 18.9525 61.5628 18.9602C61.6389 19.3096 61.7075 19.6261 61.7751 19.9354C61.6537 19.9829 61.5677 20.0164 61.4664 20.056C61.4771 20.1246 61.4754 20.1963 61.4999 20.2573C61.7086 20.7729 61.6746 20.9498 61.2732 21.3478C61.1057 21.5138 61.0356 21.772 61.1038 21.9332C61.2109 22.1865 60.8892 22.089 61.0411 22.3227C60.8802 22.1901 60.8296 22.1483 60.7423 22.0763V22.4936C60.584 22.5241 60.4472 22.5502 60.2846 22.5812V22.9908C60.0929 23.1905 59.9577 23.3317 59.8451 23.4493C60.1063 23.705 60.3472 23.9407 60.5475 24.1371V24.7013C60.709 24.8629 60.878 25.0318 61.051 25.2054C60.9972 25.301 60.9628 25.3612 60.9027 25.4669C60.9812 25.6262 61.0777 25.8224 61.2021 26.0754C61.0576 26.377 60.898 26.7102 60.7464 27.0266H60.122C59.3946 26.6105 58.6894 26.2064 57.9862 25.8037C57.8615 25.9963 57.7623 26.1495 57.6783 26.2795C57.5486 26.2163 57.4486 26.1674 57.2767 26.0836V26.7808C57.0487 26.6959 56.8894 26.6366 56.591 26.5256C56.7141 26.6937 56.7479 26.7396 56.8127 26.828C56.6754 26.9572 56.5301 27.0937 56.3001 27.3096C56.254 27.0308 56.2251 26.8561 56.1936 26.6638C56.2988 26.6275 56.3839 26.5981 56.4922 26.5605C56.5029 26.5042 56.5158 26.4361 56.5314 26.3528C56.4367 26.3199 56.3496 26.2902 56.2622 26.26C56.2944 26.1276 56.3271 25.9941 56.3825 25.7677C56.2438 25.8949 56.1903 25.9441 56.1584 25.9732C55.8395 25.9133 55.5379 25.857 55.22 25.7977C55.1711 25.7037 55.1077 25.5812 55.0327 25.4378C55.0893 25.2186 55.1536 24.9697 55.2187 24.7159C55.3651 24.7401 55.551 24.7711 55.737 24.8019C55.7447 24.7744 55.7521 24.7469 55.7601 24.7192C55.5659 24.6217 55.3719 24.5242 55.2008 24.4382C55.3011 24.2311 55.4008 24.0248 55.5046 23.81C55.0118 22.973 54.4748 22.1829 54.1712 21.2737C53.9891 20.6474 54.2048 20.0285 54.2949 19.4121C54.3649 18.9327 54.7613 18.5937 55.195 18.3512C55.2568 18.3166 55.3154 18.2767 55.4142 18.2152H56.1592C56.2768 18.3328 56.3825 18.4388 56.457 18.5133C56.3103 18.6599 56.1611 18.8088 56.0727 18.897V19.3579C56.2378 19.3151 56.3963 19.2742 56.5776 19.2272C56.6726 19.3159 56.7597 19.3975 56.8806 19.5104C56.7537 19.6653 56.649 19.7931 56.5342 19.9329Z" fill="#022658"/>
<path fill-rule="evenodd" clip-rule="evenodd" d="M11.4807 27.6269C11.5653 27.7115 11.6359 27.7821 11.7359 27.8821C11.2769 28.2746 10.8203 28.6647 10.3641 29.055C10.3742 29.0814 10.3847 29.1078 10.3951 29.1339C10.4921 29.1056 10.6105 29.1031 10.6811 29.0438C10.8129 28.9333 10.9167 28.7902 11.0978 28.7545C11.4178 28.574 11.7378 28.3933 12.049 28.2175C12.3204 28.437 12.1224 28.6103 12.0056 28.8765C12.1834 28.8092 12.2985 28.7655 12.4224 28.7182C12.4765 28.7724 12.5471 28.843 12.6179 28.9138C12.6182 29.213 12.6182 29.5124 12.6182 29.8154C12.5309 29.9005 12.4419 29.9879 12.3476 30.0796C12.3614 30.1142 12.3649 30.162 12.3905 30.1807C12.5608 30.3085 12.7308 30.4378 12.9105 30.5516C13.1036 30.6735 13.3739 30.7087 13.3813 31.021C13.3821 31.057 13.4431 31.0977 13.4832 31.126C13.6373 31.2345 13.8178 31.3166 13.9434 31.4509C14.0686 31.5847 14.1398 31.769 14.2664 31.9855C14.2664 32.1121 14.2664 32.3118 14.2661 32.5113C14.1422 32.6349 14.0189 32.7585 13.9156 32.8618C12.9709 32.5242 12.0372 32.1907 11.1038 31.8572C10.8964 31.9679 10.6731 32.0868 10.4495 32.2058C10.4401 32.1907 10.4308 32.1756 10.4215 32.1605C10.2273 32.3544 10.033 32.5486 9.785 32.7967C9.78143 32.8557 9.77428 32.9716 9.76522 33.1194C9.37185 33.4977 8.96008 33.8941 8.62798 34.2138C8.46124 34.7311 8.54584 35.2623 7.85663 35.3714C7.71406 35.1434 7.20203 35.1069 7.31877 34.5753C7.17703 34.5344 7.00287 34.4836 6.81306 34.4286C6.7702 34.4575 6.69301 34.5091 6.63286 34.5492C6.44002 34.3454 6.27163 34.1668 6.02688 33.9078C5.97221 33.4405 5.90216 32.8425 5.82854 32.2132C6.45073 31.5405 7.06385 30.8776 7.71434 30.1741C7.45997 30.0148 7.19763 29.8816 6.97293 29.7017C6.74054 29.5154 6.54468 29.2836 6.32684 29.0657C6.387 28.8715 6.44826 28.6735 6.51419 28.4595C6.39222 28.4177 6.30514 28.3878 6.19691 28.3504V27.8444C6.23867 27.8024 6.29168 27.7497 6.35294 27.6881C6.5672 27.6456 6.79218 27.6008 7.07017 27.5453C7.8102 27.9606 8.61946 28.4147 9.40674 28.8561C10.1962 28.5559 10.708 27.8634 11.4807 27.6269Z" fill="#022658"/>
</svg>
