<svg width="85" height="18" viewBox="0 0 85 18" fill="none" xmlns="http://www.w3.org/2000/svg">
<path d="M3.31348 16.6711L9.28015 4.73778C10.0502 3.19773 12.2479 3.19773 13.0179 4.73778L17.1157 12.9334C17.8857 14.4734 20.0835 14.4734 20.8535 12.9334L24.9513 4.73778C25.7213 3.19773 27.919 3.19773 28.6891 4.73778L32.7869 12.9334C33.5569 14.4734 35.7546 14.4734 36.5246 12.9334L40.6224 4.73778C41.3924 3.19773 43.5902 3.19773 44.3602 4.73778L48.458 12.9334C49.228 14.4734 51.4257 14.4734 52.1958 12.9334L56.2936 4.73778C57.0636 3.19773 59.2613 3.19773 60.0313 4.73778L64.1291 12.9334C64.8992 14.4734 67.0969 14.4734 67.8669 12.9334L71.9647 4.73778C72.7347 3.19773 74.9325 3.19773 75.7025 4.73778L81.6692 16.6711" stroke="#03FC85" stroke-width="5.22371"/>
</svg>
